<?xml version="1.0" encoding="utf-8"?>
<!-- Generator: Adobe Illustrator 19.0.0, SVG Export Plug-In . SVG Version: 6.00 Build 0)  -->
<svg version="1.1" id="Capa_1" xmlns="http://www.w3.org/2000/svg" xmlns:xlink="http://www.w3.org/1999/xlink" x="0px" y="0px"
	 viewBox="-59 61 60 60" style="enable-background:new -59 61 60 60;" xml:space="preserve">
<style type="text/css">
	.st0{fill:#009CC1;}
</style>
<image style="overflow:visible;" width="1619" height="1486" xlink:href="../../../Digiducer.jpg"  transform="matrix(0.1328 0 0 0.1328 161 -7.6689)">
</image>
<g>
	<path class="st0" d="M-133.6,183.5c2.2,0,4-1.8,4-4s-1.8-4-4-4s-4,1.8-4,4S-135.8,183.5-133.6,183.5z M-133.6,177.5
		c1.1,0,2,0.9,2,2s-0.9,2-2,2s-2-0.9-2-2S-134.7,177.5-133.6,177.5z"/>
	<path class="st0" d="M-132.6,129.5h-4c-0.6,0-1,0.4-1,1s0.4,1,1,1h4c0.6,0,1-0.4,1-1S-132.1,129.5-132.6,129.5z"/>
	<path class="st0" d="M-128.6,129.5h-1c-0.6,0-1,0.4-1,1s0.4,1,1,1h1c0.6,0,1-0.4,1-1S-128.1,129.5-128.6,129.5z"/>
	<path class="st0" d="M-123.9,156.5c-0.3-0.1-0.7-0.1-1-0.1c-0.2-0.6-0.4-1.2-0.7-1.7c0.2-0.3,0.4-0.6,0.6-0.8
		c0.5-0.6,0.4-1.5-0.2-2l-1.3-1.3c-0.5-0.5-1.4-0.6-2-0.2c-0.3,0.2-0.6,0.4-0.8,0.6c-0.5-0.3-1.1-0.5-1.7-0.7c0-0.3-0.1-0.7-0.1-1
		c-0.1-0.7-0.8-1.3-1.5-1.3h-1.9c-0.8,0-1.4,0.6-1.5,1.3c-0.1,0.3-0.1,0.7-0.1,1c-0.6,0.2-1.2,0.4-1.7,0.7c-0.3-0.2-0.6-0.4-0.8-0.6
		c-0.6-0.5-1.5-0.4-2,0.2l-1.3,1.3c-0.5,0.5-0.6,1.4-0.2,2c0.2,0.3,0.4,0.6,0.6,0.8c-0.3,0.5-0.5,1.1-0.7,1.7c-0.3,0-0.7,0.1-1,0.1
		c-0.7,0.1-1.3,0.8-1.3,1.5v1.9c0,0.8,0.6,1.4,1.3,1.5c0.3,0.1,0.7,0.1,1,0.1c0.2,0.6,0.4,1.2,0.7,1.7c-0.2,0.3-0.4,0.6-0.6,0.8
		c-0.5,0.6-0.4,1.5,0.2,2l1.3,1.3c0.5,0.5,1.4,0.6,2,0.2c0.3-0.2,0.6-0.4,0.8-0.6c0.5,0.3,1.1,0.5,1.7,0.7c0,0.3,0.1,0.7,0.1,1
		c0.1,0.7,0.8,1.3,1.5,1.3h1.9c0.8,0,1.4-0.6,1.5-1.3c0.1-0.3,0.1-0.7,0.1-1c0.6-0.2,1.2-0.4,1.7-0.7c0.3,0.2,0.6,0.4,0.8,0.6
		c0.6,0.5,1.5,0.4,2-0.2l1.3-1.3c0.5-0.5,0.6-1.4,0.2-2c-0.2-0.3-0.4-0.6-0.6-0.8c0.3-0.5,0.5-1.1,0.7-1.7c0.3,0,0.7-0.1,1-0.1
		c0.7-0.1,1.3-0.8,1.3-1.5v-1.9C-122.5,157.3-123.1,156.6-123.9,156.5z M-124.4,159.7c-0.3,0-0.6,0.1-0.9,0.1
		c-0.6,0.1-1.1,0.5-1.3,1.1c-0.2,0.6-0.4,1.1-0.7,1.6c-0.3,0.5-0.3,1.2,0.1,1.7c0.2,0.2,0.4,0.5,0.6,0.7l-1,1
		c-0.2-0.2-0.5-0.4-0.7-0.6c-0.5-0.4-1.2-0.4-1.7-0.1c-0.5,0.3-1.1,0.5-1.6,0.7c-0.6,0.2-1,0.7-1.1,1.3c0,0.3-0.1,0.6-0.1,0.9h-1.4
		c0-0.3-0.1-0.6-0.1-0.9c-0.1-0.6-0.5-1.1-1.1-1.3c-0.6-0.2-1.1-0.4-1.6-0.7c-0.5-0.3-1.2-0.3-1.7,0.1c-0.2,0.2-0.5,0.4-0.7,0.6
		l-1-1c0.2-0.2,0.4-0.5,0.6-0.7c0.4-0.5,0.4-1.2,0.1-1.7c-0.3-0.5-0.5-1.1-0.7-1.6c-0.2-0.6-0.7-1-1.3-1.1c-0.3,0-0.6-0.1-0.9-0.1
		v-1.4c0.3,0,0.6-0.1,0.9-0.1c0.6-0.1,1.1-0.5,1.3-1.1c0.2-0.6,0.4-1.1,0.7-1.6c0.3-0.5,0.3-1.2-0.1-1.7c-0.2-0.3-0.4-0.5-0.6-0.7
		l1-1c0.2,0.2,0.5,0.4,0.7,0.6c0.5,0.4,1.2,0.4,1.7,0.1c0.5-0.3,1.1-0.5,1.6-0.7c0.6-0.2,1-0.7,1.1-1.3c0-0.3,0.1-0.6,0.1-0.9h1.4
		c0,0.3,0.1,0.6,0.1,0.9c0.1,0.6,0.5,1.1,1.1,1.3c0.6,0.2,1.1,0.4,1.6,0.7c0.5,0.3,1.2,0.3,1.7-0.1c0.2-0.2,0.5-0.4,0.7-0.6l1,1
		c-0.2,0.2-0.4,0.5-0.6,0.7c-0.4,0.5-0.4,1.2-0.1,1.7c0.3,0.5,0.5,1.1,0.7,1.6c0.2,0.6,0.7,1,1.3,1.1c0.3,0,0.6,0.1,0.9,0.1V159.7z"
		/>
	<path class="st0" d="M-133.6,155.1c-2.2,0-4,1.8-4,4s1.8,4,4,4c2.2,0,4-1.8,4-4S-131.4,155.1-133.6,155.1z M-133.6,161.2
		c-1.2,0-2.2-1-2.2-2.2c0-1.2,1-2.2,2.2-2.2s2.2,1,2.2,2.2C-131.4,160.2-132.4,161.2-133.6,161.2z"/>
	<path class="st0" d="M-95.2,144.6c-0.5-0.1-0.9-0.1-1.4-0.2c-0.2-0.8-0.6-1.6-1-2.3c0.3-0.4,0.6-0.8,0.9-1.1c0.6-0.8,0.5-2-0.2-2.8
		l-1.9-1.9c-0.7-0.7-1.9-0.8-2.8-0.2c-0.4,0.3-0.8,0.6-1.1,0.9c-0.7-0.4-1.5-0.7-2.3-1c-0.1-0.5-0.1-1-0.2-1.4
		c-0.2-1-1.1-1.8-2.1-1.8h-2.6c-1,0-2,0.8-2.1,1.8c-0.1,0.5-0.1,0.9-0.2,1.4c-0.8,0.2-1.6,0.6-2.3,1c-0.3-0.3-0.7-0.5-1-0.8v-5.3
		c0-2.4-2-4.4-4.4-4.4h-25.2c-2.4,0-4.4,2-4.4,4.4v51.2c0,2.4,2,4.4,4.4,4.4h25.2c2.4,0,4.4-2,4.4-4.4v-22.2c0.3-0.2,0.7-0.5,1-0.8
		c0.7,0.4,1.5,0.7,2.3,1c0.1,0.5,0.1,1,0.2,1.4c0.2,1,1.1,1.8,2.1,1.8h2.6c1,0,2-0.8,2.1-1.8c0.1-0.5,0.1-0.9,0.2-1.4
		c0.8-0.2,1.6-0.6,2.3-1c0.4,0.3,0.8,0.6,1.1,0.9c0.8,0.6,2,0.5,2.8-0.2l1.9-1.9c0.7-0.7,0.8-1.9,0.2-2.8c-0.3-0.4-0.6-0.8-0.9-1.1
		c0.4-0.7,0.7-1.5,1-2.3c0.5-0.1,1-0.1,1.4-0.2c1-0.2,1.8-1.1,1.8-2.1v-2.6C-93.4,145.7-94.2,144.8-95.2,144.6z M-147.6,130.9
		c0-1.3,1.1-2.4,2.4-2.4h25.2c1.3,0,2.4,1.1,2.4,2.4v1.6h-30V130.9z M-117.6,182.1c0,1.3-1.1,2.4-2.4,2.4h-25.2
		c-1.3,0-2.4-1.1-2.4-2.4v-7.6h30V182.1z M-147.6,172.5v-38h30v1.3c-0.3,0.1-0.7,0.3-0.9,0.5l-1.9,1.9c-0.7,0.7-0.8,1.9-0.2,2.8
		c0.3,0.4,0.6,0.8,0.9,1.1c-0.4,0.7-0.7,1.5-1,2.3c-0.5,0.1-1,0.1-1.4,0.2c-1,0.2-1.8,1.1-1.8,2.1v2.6c0,1,0.8,2,1.8,2.1
		c0.5,0.1,0.9,0.1,1.4,0.2c0.2,0.8,0.6,1.6,1,2.3c-0.3,0.4-0.6,0.8-0.9,1.1c-0.6,0.8-0.5,2,0.2,2.8l1.9,1.9c0.3,0.3,0.6,0.4,0.9,0.5
		v12.2H-147.6z M-95.9,149c-0.4,0.1-0.9,0.1-1.3,0.2c-0.9,0.1-1.6,0.7-1.8,1.5c-0.2,0.8-0.5,1.6-0.9,2.3c-0.4,0.7-0.4,1.7,0.2,2.4
		c0.3,0.3,0.5,0.7,0.8,1l-1.3,1.3c-0.3-0.3-0.7-0.5-1-0.8c-0.7-0.5-1.6-0.6-2.4-0.2c-0.7,0.4-1.5,0.7-2.3,0.9
		c-0.8,0.2-1.4,0.9-1.5,1.8c-0.1,0.4-0.1,0.9-0.2,1.3h-1.9c-0.1-0.4-0.1-0.9-0.2-1.3c-0.1-0.9-0.7-1.6-1.5-1.8
		c-0.8-0.2-1.6-0.5-2.3-0.9c-0.7-0.4-1.7-0.4-2.4,0.2c-0.3,0.3-0.7,0.5-1,0.8l-1.3-1.3c0.3-0.3,0.5-0.7,0.8-1
		c0.5-0.7,0.6-1.6,0.2-2.4c-0.4-0.7-0.7-1.5-0.9-2.3c-0.2-0.8-0.9-1.4-1.8-1.5c-0.4-0.1-0.9-0.1-1.3-0.2v-1.9
		c0.4-0.1,0.9-0.1,1.3-0.2c0.9-0.1,1.6-0.7,1.8-1.5c0.2-0.8,0.5-1.6,0.9-2.3c0.4-0.7,0.4-1.7-0.2-2.4c-0.3-0.3-0.5-0.7-0.8-1
		l1.3-1.3c0.3,0.3,0.7,0.5,1,0.8c0.7,0.5,1.6,0.6,2.4,0.2c0.7-0.4,1.5-0.7,2.3-0.9c0.8-0.2,1.4-0.9,1.5-1.8c0.1-0.4,0.1-0.9,0.2-1.3
		h1.9c0.1,0.4,0.1,0.9,0.2,1.3c0.1,0.9,0.7,1.6,1.5,1.8c0.8,0.2,1.6,0.5,2.3,0.9c0.7,0.4,1.7,0.4,2.4-0.2c0.3-0.3,0.7-0.5,1-0.8
		l1.3,1.3c-0.3,0.3-0.5,0.7-0.8,1c-0.5,0.7-0.6,1.6-0.2,2.4c0.4,0.7,0.7,1.5,0.9,2.3c0.2,0.8,0.9,1.4,1.8,1.5
		c0.4,0.1,0.9,0.1,1.3,0.2V149z"/>
	<path class="st0" d="M-108.7,142.6c-3,0-5.5,2.4-5.5,5.5c0,3,2.4,5.5,5.5,5.5s5.5-2.4,5.5-5.5
		C-103.2,145.1-105.7,142.6-108.7,142.6z M-108.7,151.1c-1.7,0-3-1.4-3-3s1.4-3,3-3s3,1.4,3,3C-105.6,149.7-107,151.1-108.7,151.1z"
		/>
</g>
<g>
	<path class="st0" d="M-6.8,86.4c0-5.3-4.3-9.6-9.6-9.7c-0.1-7-5.8-12.7-12.9-12.7c-3.1,0-6.2,1.1-8.5,3.2c-2.1,1.8-3.5,4.3-4.1,7
		c0,0-0.1,0-0.1,0c-6,0-10.9,4.9-10.9,10.9c0,4.4,2.6,8.2,6.3,9.9c0.1,0,0.1,0.1,0.2,0.1c0,0,0,0,0.1,0c0,0,0,0,0,0
		c0.1,0,0.2,0,0.2,0c0.6,0,1-0.4,1-1c0-0.5-0.3-0.8-0.7-0.9c0,0,0,0,0,0c-3-1.4-5.1-4.5-5.1-8.1c0-4.9,4-9,9-9c0.3,0,0.5,0,0.9,0
		c0.5,0.1,1-0.3,1.1-0.8c0.4-2.6,1.6-5,3.6-6.7c2-1.8,4.6-2.7,7.2-2.7c6,0,10.9,4.9,10.9,10.9c0,0.2,0,0.4,0,0.7l0,0.1
		c0,0.3,0.1,0.6,0.3,0.8c0.2,0.2,0.5,0.3,0.8,0.3c0.3,0,0.5,0,0.8,0c4.3,0,7.7,3.5,7.7,7.7c0,2.8-1.5,5.2-3.7,6.6c0,0,0,0,0,0
		c-0.4,0.1-0.7,0.5-0.7,0.9c0,0.5,0.4,1,1,1c0.3,0,0.5-0.1,0.7-0.3C-8.7,92.9-6.8,89.9-6.8,86.4z"/>
	<path class="st0" d="M-28.3,69.6c0-0.5-0.4-1-1-1c-4.1,0-7.6,3.1-8.2,7.2c-0.1,0.5,0.3,1,0.8,1.1c0,0,0.1,0,0.1,0
		c0.5,0,0.9-0.4,1-0.9c0.4-3.1,3.1-5.4,6.2-5.4C-28.7,70.6-28.3,70.2-28.3,69.6z"/>
	<path class="st0" d="M-40,97.1c-1.9,0-3.4,1.5-3.4,3.4v2.9c0,1.9,1.5,3.4,3.4,3.4s3.4-1.5,3.4-3.4v-2.9
		C-36.6,98.7-38.1,97.1-40,97.1z M-38.6,103.4c0,0.8-0.6,1.4-1.4,1.4s-1.4-0.6-1.4-1.4v-2.9c0-0.8,0.6-1.4,1.4-1.4s1.4,0.6,1.4,1.4
		V103.4z"/>
	<path class="st0" d="M-29,108.1c-1.9,0-3.4,1.5-3.4,3.4v2.9c0,1.9,1.5,3.4,3.4,3.4s3.4-1.5,3.4-3.4v-2.9
		C-25.6,109.7-27.1,108.1-29,108.1z M-27.6,114.4c0,0.8-0.6,1.4-1.4,1.4s-1.4-0.6-1.4-1.4v-2.9c0-0.8,0.6-1.4,1.4-1.4
		s1.4,0.6,1.4,1.4V114.4z"/>
	<path class="st0" d="M-18,97.1c-1.9,0-3.4,1.5-3.4,3.4v2.9c0,1.9,1.5,3.4,3.4,3.4s3.4-1.5,3.4-3.4v-2.9
		C-14.6,98.7-16.1,97.1-18,97.1z M-16.6,103.4c0,0.8-0.6,1.4-1.4,1.4s-1.4-0.6-1.4-1.4v-2.9c0-0.8,0.6-1.4,1.4-1.4s1.4,0.6,1.4,1.4
		V103.4z"/>
	<path class="st0" d="M-18,108.1c-1.9,0-3.4,1.5-3.4,3.4v2.9c0,1.9,1.5,3.4,3.4,3.4s3.4-1.5,3.4-3.4v-2.9
		C-14.6,109.7-16.1,108.1-18,108.1z M-16.6,114.4c0,0.8-0.6,1.4-1.4,1.4s-1.4-0.6-1.4-1.4v-2.9c0-0.8,0.6-1.4,1.4-1.4
		s1.4,0.6,1.4,1.4V114.4z"/>
	<path class="st0" d="M-40,109.3c-0.5,0-1,0.5-1,1v5.5c0,0.5,0.5,1,1,1s1-0.5,1-1v-5.5C-39,109.7-39.5,109.3-40,109.3z"/>
	<path class="st0" d="M-29,98.3c-0.5,0-1,0.5-1,1v5.5c0,0.5,0.5,1,1,1s1-0.5,1-1v-5.5C-28,98.7-28.5,98.3-29,98.3z"/>
	<path class="st0" d="M-40,86.1c-1.9,0-3.4,1.5-3.4,3.4v2.9c0,1.9,1.5,3.4,3.4,3.4s3.4-1.5,3.4-3.4v-2.9
		C-36.6,87.7-38.1,86.1-40,86.1z M-38.6,92.4c0,0.8-0.6,1.4-1.4,1.4s-1.4-0.6-1.4-1.4v-2.9c0-0.8,0.6-1.4,1.4-1.4s1.4,0.6,1.4,1.4
		V92.4z"/>
	<path class="st0" d="M-28,88.3c0-0.5-0.5-1-1-1s-1,0.5-1,1v5.5c0,0.5,0.5,1,1,1s1-0.5,1-1V88.3z"/>
	<path class="st0" d="M-17,93.8v-5.5c0-0.5-0.5-1-1-1s-1,0.5-1,1v5.5c0,0.5,0.5,1,1,1S-17,94.3-17,93.8z"/>
</g>
</svg>
