<svg id="Layer_1" data-name="Layer 1" xmlns="http://www.w3.org/2000/svg" width="256" height="256" viewBox="0 0 256 256"><defs><style>.cls-1{fill:#64a9dc;}.cls-2{fill:#fff;}</style></defs><title>icon_telegram</title><g id="g3885"><rect id="rect2987" class="cls-1" width="256" height="256" rx="32"/><path id="path9" class="cls-2" d="M212.5507,47.099,39.3768,113.8925c-11.8194,4.7422-11.7493,11.3345-2.1543,14.2741l43.19,13.4805,16.5256,50.666c2.009,5.5454,1.0186,7.7448,6.8418,7.7448,4.494,0,6.4876-2.0489,8.99-4.4939,1.5916-1.5576,11.0419-10.7455,21.5937-21.0047L179.29,207.7525c8.267,4.5608,14.2362,2.1981,16.2947-7.6779l29.49-138.97C228.0942,49,220.46,43.5093,212.5507,47.099ZM87.1907,138.55l97.3507-61.4192c4.86-2.9473,9.3159-1.3627,5.6573,1.8849l-83.3576,75.21-3.2457,34.6176Z"/></g></svg>