<svg width="128" height="128" viewBox="0 0 128 128" xmlns="http://www.w3.org/2000/svg"><title>features--use-cases--instagram</title><defs><linearGradient x1="50%" y1="99.709%" x2="50%" y2=".777%" id="a"><stop stop-color="#E09B3D" offset="0%"/><stop stop-color="#C74C4D" offset="30%"/><stop stop-color="#C21975" offset="60%"/><stop stop-color="#7024C4" offset="100%"/></linearGradient><linearGradient x1="50%" y1="146.099%" x2="50%" y2="-45.16%" id="b"><stop stop-color="#E09B3D" offset="0%"/><stop stop-color="#C74C4D" offset="30%"/><stop stop-color="#C21975" offset="60%"/><stop stop-color="#7024C4" offset="100%"/></linearGradient><linearGradient x1="50%" y1="658.141%" x2="50%" y2="-140.029%" id="c"><stop stop-color="#E09B3D" offset="0%"/><stop stop-color="#C74C4D" offset="30%"/><stop stop-color="#C21975" offset="60%"/><stop stop-color="#7024C4" offset="100%"/></linearGradient></defs><g transform="translate(15 15)" fill="none"><path d="M68.09 0H28.892C12.961 0 0 12.96 0 28.891v39.2c0 15.93 12.96 28.891 28.891 28.891h39.2c15.93 0 28.891-12.96 28.891-28.891v-39.2C96.982 12.961 84.022 0 68.091 0zm19.136 68.09c0 10.568-8.568 19.136-19.135 19.136h-39.2c-10.567 0-19.135-8.568-19.135-19.135v-39.2c0-10.568 8.568-19.135 19.135-19.135h39.2c10.567 0 19.135 8.567 19.135 19.135v39.2z" fill="url(#a)"/><path d="M48.491 23.408c-13.83 0-25.083 11.252-25.083 25.083 0 13.83 11.252 25.083 25.083 25.083 13.83 0 25.083-11.252 25.083-25.083 0-13.831-11.252-25.083-25.083-25.083zm0 40.41c-8.465 0-15.327-6.862-15.327-15.327s6.862-15.327 15.327-15.327 15.327 6.862 15.327 15.327-6.862 15.327-15.327 15.327z" fill="url(#b)"/><circle fill="url(#c)" cx="73.623" cy="23.596" r="6.01"/></g></svg>