<?xml version="1.0"?>
<svg xmlns="http://www.w3.org/2000/svg" id="Layer_1" data-name="Layer 1" viewBox="0 0 64 64"><title>Icons8 RSL Colored Part 9</title><path d="M47,27V37.07a10,10,0,0,1-.72,3.71L44,46.49A4,4,0,0,1,40.29,49H23.71A4,4,0,0,1,20,46.49l-2.28-5.7A10,10,0,0,1,17,37.07V27Z" style="fill:#e0678f;"/><path d="M19,3H45a2,2,0,0,1,2,2V23a0,0,0,0,1,0,0H17a0,0,0,0,1,0,0V5A2,2,0,0,1,19,3Z" style="fill:#ace3ff;"/><polyline points="27 63 27 49 37 49 37 60" style="fill:#ced8ed;"/><rect x="27" y="50" width="10" height="4" style="fill:#acb7d0;"/><path d="M21,3H43a0,0,0,0,1,0,0V13a2,2,0,0,1-2,2H23a2,2,0,0,1-2-2V3A0,0,0,0,1,21,3Z" style="fill:#f6d397;"/><rect x="15" y="23" width="34" height="4" rx="2" ry="2" style="fill:#f6d397;"/><rect x="26" y="3" width="6" height="12" style="fill:#f9e3ae;"/><rect x="38" y="3" width="5" height="12" style="fill:#f9e3ae;"/><rect x="17" y="27" width="30" height="12" style="fill:#ed7899;"/><path d="M50,25a3,3,0,0,0-2-2.82V5a3,3,0,0,0-3-3H19a3,3,0,0,0-3,3V22.18a3,3,0,0,0,0,5.63v9.26a11,11,0,0,0,.79,4.08l2.28,5.7A5,5,0,0,0,23.71,50H26V63a1,1,0,0,0,2,0V50h8V60a1,1,0,0,0,2,0V50h2.29a5,5,0,0,0,4.64-3.14l2.28-5.7A11,11,0,0,0,48,37.07V27.82A3,3,0,0,0,50,25ZM25,4v7a1,1,0,0,0,2,0V4h4v7a1,1,0,0,0,2,0V4h4v7a1,1,0,0,0,2,0V4h3v9a1,1,0,0,1-1,1H23a1,1,0,0,1-1-1V4ZM18,5a1,1,0,0,1,1-1h1v9a3,3,0,0,0,3,3H41a3,3,0,0,0,3-3V4h1a1,1,0,0,1,1,1V22H18ZM46,37.07a9,9,0,0,1-.64,3.34l-2.28,5.7A3,3,0,0,1,40.29,48H23.71a3,3,0,0,1-2.79-1.89l-2.28-5.7c-.05-.14-.1-.28-.14-.42H35a1,1,0,0,0,0-2H18.05a9,9,0,0,1-.05-.93V28H46ZM47,26H17a1,1,0,0,1,0-2H47a1,1,0,0,1,0,2Z" style="fill:#8d6c9f;"/><path d="M42,34a1,1,0,0,0,1-1V31a1,1,0,0,0-2,0v2A1,1,0,0,0,42,34Z" style="fill:#8d6c9f;"/><path d="M22,34a1,1,0,0,0,1-1V31a1,1,0,0,0-2,0v2A1,1,0,0,0,22,34Z" style="fill:#8d6c9f;"/><path d="M27,34a1,1,0,0,0,1-1V31a1,1,0,0,0-2,0v2A1,1,0,0,0,27,34Z" style="fill:#8d6c9f;"/><path d="M32,34a1,1,0,0,0,1-1V31a1,1,0,0,0-2,0v2A1,1,0,0,0,32,34Z" style="fill:#8d6c9f;"/><path d="M37,34a1,1,0,0,0,1-1V31a1,1,0,0,0-2,0v2A1,1,0,0,0,37,34Z" style="fill:#8d6c9f;"/><path d="M39,40h4a1,1,0,0,0,0-2H39a1,1,0,0,0,0,2Z" style="fill:#8d6c9f;"/></svg>
