<svg id="Layer_1" data-name="Layer 1" xmlns="http://www.w3.org/2000/svg" viewBox="0 0 59.94 71.1"><defs><style>.cls-1{fill:#23d89e;}</style></defs><path class="cls-1" d="M29.27,35.61a3.35,3.35,0,0,0-2.57,2.6A3.31,3.31,0,0,0,28,41.56l-.52,4.73a.83.83,0,0,0,.2.64.84.84,0,0,0,.62.28h3.34a.82.82,0,0,0,.62-.28.83.83,0,0,0,.21-.64l-.53-4.73a3.29,3.29,0,0,0,1.37-2.68A3.35,3.35,0,0,0,29.27,35.61Z"/><path class="cls-1" d="M58.46,8.45,30.57.09a2,2,0,0,0-1.2,0L1.48,8.45a2.09,2.09,0,0,0-1.48,2V41.13c0,4,1.62,8.07,4.8,12.14a49.47,49.47,0,0,0,10,9.26,89.49,89.49,0,0,0,14.31,8.39,2.1,2.1,0,0,0,1.7,0,89.34,89.34,0,0,0,14.32-8.39,49.66,49.66,0,0,0,10-9.26c3.19-4.07,4.8-8.15,4.8-12.14V10.45A2.09,2.09,0,0,0,58.46,8.45ZM18.3,24.21a11.67,11.67,0,0,1,23.34,0V27.1h-5V24.21a6.67,6.67,0,0,0-13.34,0V27.1h-5ZM45,50.2a2.36,2.36,0,0,1-2.36,2.35H17.32A2.35,2.35,0,0,1,15,50.2V31.92a2.17,2.17,0,0,1,2.17-2.17H42.8A2.18,2.18,0,0,1,45,31.92Z"/></svg>