<?xml version="1.0"?>
<svg xmlns="http://www.w3.org/2000/svg" id="Layer_1" data-name="Layer 1" viewBox="0 0 64 64"><title>Icons8 RSL Colored Part 12</title><rect x="3" y="47" width="58" height="12" rx="2" ry="2" style="fill:#c2cde7;"/><rect x="3" y="53" width="58" height="6" rx="2" ry="2" style="fill:#b5c4e0;"/><path d="M57,31.83A9.16,9.16,0,0,1,47.83,41H19.5a12.49,12.49,0,0,1-2-24.83,15.82,15.82,0,0,1,31.14,4,16.3,16.3,0,0,1-.22,2.53A9.15,9.15,0,0,1,57,31.83Z" style="fill:#c5e4fa;"/><path d="M56,36a9.16,9.16,0,0,1-8.17,5H19.5a12.5,12.5,0,0,1-10-5Z" style="fill:#b8ddf4;"/><path d="M44.46,12.48h0a2,2,0,0,1-2.77-.18A11.81,11.81,0,0,0,27.15,9.79,11.45,11.45,0,0,0,25,11.28a2,2,0,0,1-2.69-.12h0a2,2,0,0,1,.11-2.93A15.82,15.82,0,0,1,44.63,9.6,2,2,0,0,1,44.46,12.48Z" style="fill:#e3f2ff;"/><circle cx="11" cy="53" r="2" style="fill:#ed7899;"/><path d="M59,46H5a3,3,0,0,0-3,3v8a3,3,0,0,0,3,3H59a3,3,0,0,0,3-3V49A3,3,0,0,0,59,46Zm1,11a1,1,0,0,1-1,1H5a1,1,0,0,1-1-1V49a1,1,0,0,1,1-1H59a1,1,0,0,1,1,1Z" style="fill:#8d6c9f;"/><path d="M19.5,42H47.83a10.16,10.16,0,0,0,2.6-20l-.06,0c-.2-.05-.4-.08-.6-.12l-.2,0a15.45,15.45,0,0,0,.09-1.66A16.81,16.81,0,0,0,17.18,14a.94.94,0,0,0-.09.14c-.14.37-.26.74-.37,1.12A13.49,13.49,0,0,0,19.5,42ZM16.22,17.5A16.92,16.92,0,0,0,16,20.17a1,1,0,1,0,2,0,14.83,14.83,0,0,1,.47-3.69l0-.05a14.82,14.82,0,0,1,29.17,3.74,13.75,13.75,0,0,1-.1,1.52,10.23,10.23,0,0,0-2,.24A1,1,0,1,0,46,23.88a8.28,8.28,0,0,1,2.49-.17c.23,0,.46,0,.69.08h0a8.16,8.16,0,0,1,6.44,10.45A1,1,0,0,0,55,34a1,1,0,0,0-1,1v2a1,1,0,0,0,0,.14A8.15,8.15,0,0,1,47.83,40H19.5A11.46,11.46,0,0,1,11,36.18,1,1,0,0,0,11,36V35a1,1,0,0,0-1-1,1,1,0,0,0-.5.15A11.46,11.46,0,0,1,16.22,17.5Z" style="fill:#8d6c9f;"/><path d="M15,38a1,1,0,0,0,1-1V35a1,1,0,0,0-2,0v2A1,1,0,0,0,15,38Z" style="fill:#8d6c9f;"/><path d="M20,38a1,1,0,0,0,1-1V35a1,1,0,0,0-2,0v2A1,1,0,0,0,20,38Z" style="fill:#8d6c9f;"/><path d="M25,38a1,1,0,0,0,1-1V35a1,1,0,0,0-2,0v2A1,1,0,0,0,25,38Z" style="fill:#8d6c9f;"/><path d="M30,34a1,1,0,0,0-1,1v2a1,1,0,0,0,2,0V35A1,1,0,0,0,30,34Z" style="fill:#8d6c9f;"/><path d="M35,34a1,1,0,0,0-1,1v2a1,1,0,0,0,2,0V35A1,1,0,0,0,35,34Z" style="fill:#8d6c9f;"/><path d="M40,34a1,1,0,0,0-1,1v2a1,1,0,0,0,2,0V35A1,1,0,0,0,40,34Z" style="fill:#8d6c9f;"/><path d="M45,38a1,1,0,0,0,1-1V35a1,1,0,0,0-2,0v2A1,1,0,0,0,45,38Z" style="fill:#8d6c9f;"/><path d="M50,38a1,1,0,0,0,1-1V35a1,1,0,0,0-2,0v2A1,1,0,0,0,50,38Z" style="fill:#8d6c9f;"/><path d="M11,50a3,3,0,1,0,3,3A3,3,0,0,0,11,50Zm0,4a1,1,0,1,1,1-1A1,1,0,0,1,11,54Z" style="fill:#8d6c9f;"/><path d="M55,52H17a1,1,0,0,0,0,2H55a1,1,0,0,0,0-2Z" style="fill:#8d6c9f;"/><path d="M38.47,11.39a11.79,11.79,0,0,1,1.85,1.4,1,1,0,1,0,1.36-1.47,13.64,13.64,0,0,0-2.16-1.64,1,1,0,0,0-1,1.71Z" style="fill:#8d6c9f;"/><path d="M27,11.59a1,1,0,0,0,.53-.15,10.39,10.39,0,0,1,7.95-1.31A1,1,0,0,0,36,8.19a12.42,12.42,0,0,0-9.48,1.55A1,1,0,0,0,27,11.59Z" style="fill:#8d6c9f;"/></svg>
